<svg viewBox="0 0 800 600" preserveAspectRatio="xMidYMid meet" xmlns="http://www.w3.org/2000/svg" role="img" aria-label="Manhattan plot of genome-wide association signal">
<line x1="44" y1="270.9" x2="766" y2="270.9" stroke="#6B2C38" stroke-width="1" stroke-dasharray="2 5" opacity="0.7"/>
<line x1="44" y1="536" x2="766" y2="536" stroke="#CFC7B7" stroke-width="1"/>
<circle cx="108.9" cy="475.1" r="1.7" fill="#1A1714" opacity="0.85"/>
<circle cx="51.1" cy="409.3" r="1.7" fill="#1A1714" opacity="0.85"/>
<circle cx="54.0" cy="446.1" r="1.7" fill="#1A1714" opacity="0.85"/>
<circle cx="106.4" cy="502.9" r="1.7" fill="#1A1714" opacity="0.85"/>
<circle cx="53.5" cy="471.5" r="1.7" fill="#1A1714" opacity="0.85"/>
<circle cx="63.5" cy="451.0" r="1.7" fill="#1A1714" opacity="0.85"/>
<circle cx="51.8" cy="448.8" r="1.7" fill="#1A1714" opacity="0.85"/>
<circle cx="108.8" cy="438.7" r="1.7" fill="#1A1714" opacity="0.85"/>
<circle cx="85.4" cy="526.5" r="1.7" fill="#1A1714" opacity="0.85"/>
<circle cx="85.6" cy="528.4" r="1.7" fill="#1A1714" opacity="0.85"/>
<circle cx="62.2" cy="450.1" r="1.7" fill="#1A1714" opacity="0.85"/>
<circle cx="56.5" cy="471.4" r="1.7" fill="#1A1714" opacity="0.85"/>
<circle cx="82.7" cy="447.9" r="1.7" fill="#1A1714" opacity="0.85"/>
<circle cx="84.0" cy="430.8" r="1.7" fill="#1A1714" opacity="0.85"/>
<circle cx="54.6" cy="447.9" r="1.7" fill="#1A1714" opacity="0.85"/>
<circle cx="60.1" cy="521.0" r="1.7" fill="#1A1714" opacity="0.85"/>
<circle cx="93.7" cy="449.0" r="1.7" fill="#1A1714" opacity="0.85"/>
<circle cx="87.7" cy="459.4" r="1.7" fill="#1A1714" opacity="0.85"/>
<circle cx="82.1" cy="416.1" r="1.7" fill="#1A1714" opacity="0.85"/>
<circle cx="77.9" cy="393.6" r="1.7" fill="#1A1714" opacity="0.85"/>
<circle cx="71.2" cy="497.7" r="1.7" fill="#1A1714" opacity="0.85"/>
<circle cx="59.5" cy="415.7" r="1.7" fill="#1A1714" opacity="0.85"/>
<circle cx="53.3" cy="489.7" r="1.7" fill="#1A1714" opacity="0.85"/>
<circle cx="79.8" cy="483.0" r="1.7" fill="#1A1714" opacity="0.85"/>
<circle cx="76.8" cy="442.1" r="1.7" fill="#1A1714" opacity="0.85"/>
<circle cx="52.7" cy="457.0" r="1.7" fill="#1A1714" opacity="0.85"/>
<circle cx="58.6" cy="483.2" r="1.7" fill="#1A1714" opacity="0.85"/>
<circle cx="107.9" cy="471.0" r="1.7" fill="#1A1714" opacity="0.85"/>
<circle cx="109.8" cy="524.0" r="1.7" fill="#1A1714" opacity="0.85"/>
<circle cx="83.8" cy="414.3" r="1.7" fill="#1A1714" opacity="0.85"/>
<circle cx="100.5" cy="483.5" r="1.7" fill="#1A1714" opacity="0.85"/>
<circle cx="70.5" cy="459.4" r="1.7" fill="#1A1714" opacity="0.85"/>
<circle cx="99.2" cy="525.4" r="1.7" fill="#1A1714" opacity="0.85"/>
<circle cx="54.0" cy="494.4" r="1.7" fill="#1A1714" opacity="0.85"/>
<circle cx="92.8" cy="526.0" r="1.7" fill="#1A1714" opacity="0.85"/>
<circle cx="94.9" cy="488.2" r="1.7" fill="#1A1714" opacity="0.85"/>
<circle cx="85.1" cy="430.9" r="1.7" fill="#1A1714" opacity="0.85"/>
<circle cx="76.6" cy="425.5" r="1.7" fill="#1A1714" opacity="0.85"/>
<circle cx="104.9" cy="482.5" r="1.7" fill="#1A1714" opacity="0.85"/>
<circle cx="143.0" cy="441.8" r="1.7" fill="#56514A" opacity="0.85"/>
<circle cx="151.9" cy="502.3" r="1.7" fill="#56514A" opacity="0.85"/>
<circle cx="138.7" cy="422.1" r="1.7" fill="#56514A" opacity="0.85"/>
<circle cx="145.7" cy="394.6" r="1.7" fill="#56514A" opacity="0.85"/>
<circle cx="152.1" cy="510.3" r="1.7" fill="#56514A" opacity="0.85"/>
<circle cx="146.0" cy="493.1" r="1.7" fill="#56514A" opacity="0.85"/>
<circle cx="129.0" cy="469.6" r="1.7" fill="#56514A" opacity="0.85"/>
<circle cx="155.5" cy="427.0" r="1.7" fill="#56514A" opacity="0.85"/>
<circle cx="183.5" cy="430.7" r="1.7" fill="#56514A" opacity="0.85"/>
<circle cx="144.6" cy="500.4" r="1.7" fill="#56514A" opacity="0.85"/>
<circle cx="125.5" cy="512.7" r="1.7" fill="#56514A" opacity="0.85"/>
<circle cx="162.5" cy="534.1" r="1.7" fill="#56514A" opacity="0.85"/>
<circle cx="173.6" cy="507.9" r="1.7" fill="#56514A" opacity="0.85"/>
<circle cx="138.3" cy="513.5" r="1.7" fill="#56514A" opacity="0.85"/>
<circle cx="154.5" cy="441.9" r="1.7" fill="#56514A" opacity="0.85"/>
<circle cx="140.7" cy="516.6" r="1.7" fill="#56514A" opacity="0.85"/>
<circle cx="175.4" cy="389.4" r="1.7" fill="#56514A" opacity="0.85"/>
<circle cx="162.2" cy="421.9" r="1.7" fill="#56514A" opacity="0.85"/>
<circle cx="149.5" cy="401.7" r="1.7" fill="#56514A" opacity="0.85"/>
<circle cx="181.3" cy="431.0" r="1.7" fill="#56514A" opacity="0.85"/>
<circle cx="156.1" cy="474.6" r="1.7" fill="#56514A" opacity="0.85"/>
<circle cx="145.5" cy="461.7" r="1.7" fill="#56514A" opacity="0.85"/>
<circle cx="145.9" cy="506.6" r="1.7" fill="#56514A" opacity="0.85"/>
<circle cx="183.4" cy="468.0" r="1.7" fill="#56514A" opacity="0.85"/>
<circle cx="127.3" cy="443.3" r="1.7" fill="#56514A" opacity="0.85"/>
<circle cx="126.8" cy="448.6" r="1.7" fill="#56514A" opacity="0.85"/>
<circle cx="154.7" cy="389.6" r="1.7" fill="#56514A" opacity="0.85"/>
<circle cx="159.6" cy="525.2" r="1.7" fill="#56514A" opacity="0.85"/>
<circle cx="133.6" cy="478.0" r="1.7" fill="#56514A" opacity="0.85"/>
<circle cx="160.9" cy="388.6" r="1.7" fill="#56514A" opacity="0.85"/>
<circle cx="158.9" cy="462.9" r="1.7" fill="#56514A" opacity="0.85"/>
<circle cx="127.6" cy="460.7" r="1.7" fill="#56514A" opacity="0.85"/>
<circle cx="183.0" cy="461.9" r="1.7" fill="#56514A" opacity="0.85"/>
<circle cx="140.2" cy="513.8" r="1.7" fill="#56514A" opacity="0.85"/>
<circle cx="168.3" cy="421.8" r="1.7" fill="#56514A" opacity="0.85"/>
<circle cx="150.9" cy="429.3" r="1.7" fill="#56514A" opacity="0.85"/>
<circle cx="153.3" cy="504.3" r="1.7" fill="#56514A" opacity="0.85"/>
<circle cx="181.3" cy="480.2" r="1.7" fill="#56514A" opacity="0.85"/>
<circle cx="164.5" cy="395.0" r="1.7" fill="#56514A" opacity="0.85"/>
<circle cx="168.9" cy="490.0" r="1.7" fill="#56514A" opacity="0.85"/>
<circle cx="161.5" cy="522.0" r="1.7" fill="#56514A" opacity="0.85"/>
<circle cx="225.7" cy="395.9" r="1.7" fill="#1A1714" opacity="0.85"/>
<circle cx="215.2" cy="501.6" r="1.7" fill="#1A1714" opacity="0.85"/>
<circle cx="227.2" cy="458.5" r="1.7" fill="#1A1714" opacity="0.85"/>
<circle cx="233.3" cy="441.4" r="1.7" fill="#1A1714" opacity="0.85"/>
<circle cx="243.0" cy="419.0" r="1.7" fill="#1A1714" opacity="0.85"/>
<circle cx="204.9" cy="499.1" r="1.7" fill="#1A1714" opacity="0.85"/>
<circle cx="218.1" cy="412.1" r="1.7" fill="#1A1714" opacity="0.85"/>
<circle cx="205.2" cy="460.0" r="1.7" fill="#1A1714" opacity="0.85"/>
<circle cx="239.3" cy="383.4" r="1.7" fill="#1A1714" opacity="0.85"/>
<circle cx="243.1" cy="463.2" r="1.7" fill="#1A1714" opacity="0.85"/>
<circle cx="204.8" cy="442.7" r="1.7" fill="#1A1714" opacity="0.85"/>
<circle cx="214.5" cy="411.3" r="1.7" fill="#1A1714" opacity="0.85"/>
<circle cx="238.8" cy="482.1" r="1.7" fill="#1A1714" opacity="0.85"/>
<circle cx="255.0" cy="523.6" r="1.7" fill="#1A1714" opacity="0.85"/>
<circle cx="199.0" cy="463.5" r="1.7" fill="#1A1714" opacity="0.85"/>
<circle cx="214.1" cy="461.6" r="1.7" fill="#1A1714" opacity="0.85"/>
<circle cx="255.7" cy="441.9" r="1.7" fill="#1A1714" opacity="0.85"/>
<circle cx="192.5" cy="395.8" r="1.7" fill="#1A1714" opacity="0.85"/>
<circle cx="214.5" cy="436.8" r="1.7" fill="#1A1714" opacity="0.85"/>
<circle cx="246.0" cy="517.5" r="1.7" fill="#1A1714" opacity="0.85"/>
<circle cx="217.3" cy="426.3" r="1.7" fill="#1A1714" opacity="0.85"/>
<circle cx="205.2" cy="398.9" r="1.7" fill="#1A1714" opacity="0.85"/>
<circle cx="220.3" cy="437.9" r="1.7" fill="#1A1714" opacity="0.85"/>
<circle cx="198.0" cy="390.1" r="1.7" fill="#1A1714" opacity="0.85"/>
<circle cx="238.7" cy="464.6" r="1.7" fill="#1A1714" opacity="0.85"/>
<circle cx="240.1" cy="522.9" r="1.7" fill="#1A1714" opacity="0.85"/>
<circle cx="202.6" cy="382.8" r="1.7" fill="#1A1714" opacity="0.85"/>
<circle cx="194.2" cy="444.9" r="1.7" fill="#1A1714" opacity="0.85"/>
<circle cx="222.3" cy="434.8" r="1.7" fill="#1A1714" opacity="0.85"/>
<circle cx="231.7" cy="444.1" r="1.7" fill="#1A1714" opacity="0.85"/>
<circle cx="222.9" cy="391.4" r="1.7" fill="#1A1714" opacity="0.85"/>
<circle cx="202.4" cy="451.4" r="1.7" fill="#1A1714" opacity="0.85"/>
<circle cx="193.8" cy="412.7" r="1.7" fill="#1A1714" opacity="0.85"/>
<circle cx="239.0" cy="520.1" r="1.7" fill="#1A1714" opacity="0.85"/>
<circle cx="240.5" cy="514.5" r="1.7" fill="#1A1714" opacity="0.85"/>
<circle cx="255.7" cy="506.0" r="1.7" fill="#1A1714" opacity="0.85"/>
<circle cx="248.5" cy="531.7" r="1.7" fill="#1A1714" opacity="0.85"/>
<circle cx="206.1" cy="458.7" r="1.7" fill="#1A1714" opacity="0.85"/>
<circle cx="302.2" cy="496.0" r="1.7" fill="#56514A" opacity="0.85"/>
<circle cx="291.5" cy="515.8" r="1.7" fill="#56514A" opacity="0.85"/>
<circle cx="323.0" cy="481.4" r="1.7" fill="#56514A" opacity="0.85"/>
<circle cx="294.0" cy="446.0" r="1.7" fill="#56514A" opacity="0.85"/>
<circle cx="322.7" cy="471.1" r="1.7" fill="#56514A" opacity="0.85"/>
<circle cx="323.5" cy="458.6" r="1.7" fill="#56514A" opacity="0.85"/>
<circle cx="298.7" cy="455.3" r="1.7" fill="#56514A" opacity="0.85"/>
<circle cx="265.8" cy="468.1" r="1.7" fill="#56514A" opacity="0.85"/>
<circle cx="276.4" cy="535.4" r="1.7" fill="#56514A" opacity="0.85"/>
<circle cx="315.9" cy="509.4" r="1.7" fill="#56514A" opacity="0.85"/>
<circle cx="295.0" cy="424.1" r="1.7" fill="#56514A" opacity="0.85"/>
<circle cx="300.3" cy="485.7" r="1.7" fill="#56514A" opacity="0.85"/>
<circle cx="297.9" cy="450.3" r="1.7" fill="#56514A" opacity="0.85"/>
<circle cx="315.0" cy="519.6" r="1.7" fill="#56514A" opacity="0.85"/>
<circle cx="300.6" cy="497.7" r="1.7" fill="#56514A" opacity="0.85"/>
<circle cx="282.4" cy="416.9" r="1.7" fill="#56514A" opacity="0.85"/>
<circle cx="297.2" cy="449.4" r="1.7" fill="#56514A" opacity="0.85"/>
<circle cx="313.4" cy="395.3" r="1.7" fill="#56514A" opacity="0.85"/>
<circle cx="293.1" cy="441.5" r="1.7" fill="#56514A" opacity="0.85"/>
<circle cx="297.1" cy="457.0" r="1.7" fill="#56514A" opacity="0.85"/>
<circle cx="309.1" cy="466.2" r="1.7" fill="#56514A" opacity="0.85"/>
<circle cx="298.8" cy="462.3" r="1.7" fill="#56514A" opacity="0.85"/>
<circle cx="325.0" cy="428.2" r="1.7" fill="#56514A" opacity="0.85"/>
<circle cx="320.9" cy="390.7" r="1.7" fill="#56514A" opacity="0.85"/>
<circle cx="281.3" cy="449.7" r="1.7" fill="#56514A" opacity="0.85"/>
<circle cx="325.2" cy="406.4" r="1.7" fill="#56514A" opacity="0.85"/>
<circle cx="273.4" cy="517.2" r="1.7" fill="#56514A" opacity="0.85"/>
<circle cx="293.0" cy="524.8" r="1.7" fill="#56514A" opacity="0.85"/>
<circle cx="280.0" cy="524.7" r="1.7" fill="#56514A" opacity="0.85"/>
<circle cx="307.6" cy="415.1" r="1.7" fill="#56514A" opacity="0.85"/>
<circle cx="322.2" cy="512.2" r="1.7" fill="#56514A" opacity="0.85"/>
<circle cx="310.6" cy="434.2" r="1.7" fill="#56514A" opacity="0.85"/>
<circle cx="273.8" cy="399.8" r="1.7" fill="#56514A" opacity="0.85"/>
<circle cx="326.7" cy="502.1" r="1.7" fill="#56514A" opacity="0.85"/>
<circle cx="325.8" cy="474.6" r="1.7" fill="#56514A" opacity="0.85"/>
<circle cx="295.9" cy="383.3" r="1.7" fill="#56514A" opacity="0.85"/>
<circle cx="318.0" cy="511.1" r="1.7" fill="#56514A" opacity="0.85"/>
<circle cx="292.3" cy="456.5" r="1.7" fill="#56514A" opacity="0.85"/>
<circle cx="286.4" cy="505.8" r="1.7" fill="#56514A" opacity="0.85"/>
<circle cx="285.0" cy="424.6" r="1.7" fill="#56514A" opacity="0.85"/>
<circle cx="265.9" cy="450.5" r="1.7" fill="#56514A" opacity="0.85"/>
<circle cx="292.9" cy="533.2" r="1.7" fill="#56514A" opacity="0.85"/>
<circle cx="285.9" cy="439.8" r="1.7" fill="#56514A" opacity="0.85"/>
<circle cx="297.5" cy="526.1" r="1.7" fill="#56514A" opacity="0.85"/>
<circle cx="327.8" cy="414.4" r="1.7" fill="#56514A" opacity="0.85"/>
<circle cx="327.0" cy="519.8" r="1.7" fill="#56514A" opacity="0.85"/>
<circle cx="354.3" cy="396.3" r="1.7" fill="#1A1714" opacity="0.85"/>
<circle cx="348.5" cy="419.4" r="1.7" fill="#1A1714" opacity="0.85"/>
<circle cx="389.4" cy="405.0" r="1.7" fill="#1A1714" opacity="0.85"/>
<circle cx="380.2" cy="390.1" r="1.7" fill="#1A1714" opacity="0.85"/>
<circle cx="362.9" cy="453.2" r="1.7" fill="#1A1714" opacity="0.85"/>
<circle cx="369.8" cy="459.7" r="1.7" fill="#1A1714" opacity="0.85"/>
<circle cx="357.8" cy="493.0" r="1.7" fill="#1A1714" opacity="0.85"/>
<circle cx="388.1" cy="507.7" r="1.7" fill="#1A1714" opacity="0.85"/>
<circle cx="394.3" cy="494.5" r="1.7" fill="#1A1714" opacity="0.85"/>
<circle cx="337.9" cy="522.3" r="1.7" fill="#1A1714" opacity="0.85"/>
<circle cx="353.5" cy="442.2" r="1.7" fill="#1A1714" opacity="0.85"/>
<circle cx="351.1" cy="495.2" r="1.7" fill="#1A1714" opacity="0.85"/>
<circle cx="344.6" cy="534.2" r="1.7" fill="#1A1714" opacity="0.85"/>
<circle cx="400.6" cy="471.6" r="1.7" fill="#1A1714" opacity="0.85"/>
<circle cx="395.6" cy="440.1" r="1.7" fill="#1A1714" opacity="0.85"/>
<circle cx="339.6" cy="426.6" r="1.7" fill="#1A1714" opacity="0.85"/>
<circle cx="397.0" cy="386.5" r="1.7" fill="#1A1714" opacity="0.85"/>
<circle cx="353.6" cy="508.1" r="1.7" fill="#1A1714" opacity="0.85"/>
<circle cx="396.7" cy="439.0" r="1.7" fill="#1A1714" opacity="0.85"/>
<circle cx="370.9" cy="504.2" r="1.7" fill="#1A1714" opacity="0.85"/>
<circle cx="365.4" cy="432.3" r="1.7" fill="#1A1714" opacity="0.85"/>
<circle cx="354.2" cy="412.0" r="1.7" fill="#1A1714" opacity="0.85"/>
<circle cx="400.6" cy="530.3" r="1.7" fill="#1A1714" opacity="0.85"/>
<circle cx="338.0" cy="458.0" r="1.7" fill="#1A1714" opacity="0.85"/>
<circle cx="399.6" cy="456.7" r="1.7" fill="#1A1714" opacity="0.85"/>
<circle cx="352.6" cy="467.0" r="1.7" fill="#1A1714" opacity="0.85"/>
<circle cx="379.1" cy="435.7" r="1.7" fill="#1A1714" opacity="0.85"/>
<circle cx="378.9" cy="451.8" r="1.7" fill="#1A1714" opacity="0.85"/>
<circle cx="393.9" cy="386.3" r="1.7" fill="#1A1714" opacity="0.85"/>
<circle cx="356.6" cy="502.8" r="1.7" fill="#1A1714" opacity="0.85"/>
<circle cx="351.5" cy="505.4" r="1.7" fill="#1A1714" opacity="0.85"/>
<circle cx="393.4" cy="423.6" r="1.7" fill="#1A1714" opacity="0.85"/>
<circle cx="345.8" cy="383.4" r="1.7" fill="#1A1714" opacity="0.85"/>
<circle cx="399.8" cy="406.9" r="1.7" fill="#1A1714" opacity="0.85"/>
<circle cx="337.7" cy="439.5" r="1.7" fill="#1A1714" opacity="0.85"/>
<circle cx="393.3" cy="469.6" r="1.7" fill="#1A1714" opacity="0.85"/>
<circle cx="340.4" cy="433.4" r="1.7" fill="#1A1714" opacity="0.85"/>
<circle cx="361.3" cy="458.0" r="1.7" fill="#1A1714" opacity="0.85"/>
<circle cx="447.4" cy="429.2" r="1.7" fill="#56514A" opacity="0.85"/>
<circle cx="411.9" cy="507.4" r="1.7" fill="#56514A" opacity="0.85"/>
<circle cx="426.3" cy="535.4" r="1.7" fill="#56514A" opacity="0.85"/>
<circle cx="432.4" cy="485.3" r="1.7" fill="#56514A" opacity="0.85"/>
<circle cx="472.2" cy="486.1" r="1.7" fill="#56514A" opacity="0.85"/>
<circle cx="411.2" cy="399.9" r="1.7" fill="#56514A" opacity="0.85"/>
<circle cx="423.0" cy="507.8" r="1.7" fill="#56514A" opacity="0.85"/>
<circle cx="430.5" cy="523.1" r="1.7" fill="#56514A" opacity="0.85"/>
<circle cx="426.9" cy="434.8" r="1.7" fill="#56514A" opacity="0.85"/>
<circle cx="424.9" cy="416.3" r="1.7" fill="#56514A" opacity="0.85"/>
<circle cx="414.8" cy="410.0" r="1.7" fill="#56514A" opacity="0.85"/>
<circle cx="418.2" cy="445.5" r="1.7" fill="#56514A" opacity="0.85"/>
<circle cx="434.3" cy="489.8" r="1.7" fill="#56514A" opacity="0.85"/>
<circle cx="449.4" cy="523.0" r="1.7" fill="#56514A" opacity="0.85"/>
<circle cx="470.5" cy="404.4" r="1.7" fill="#56514A" opacity="0.85"/>
<circle cx="419.0" cy="398.3" r="1.7" fill="#56514A" opacity="0.85"/>
<circle cx="459.3" cy="444.0" r="1.7" fill="#56514A" opacity="0.85"/>
<circle cx="458.1" cy="424.8" r="1.7" fill="#56514A" opacity="0.85"/>
<circle cx="440.7" cy="492.2" r="1.7" fill="#56514A" opacity="0.85"/>
<circle cx="448.7" cy="513.7" r="1.7" fill="#56514A" opacity="0.85"/>
<circle cx="462.0" cy="425.7" r="1.7" fill="#56514A" opacity="0.85"/>
<circle cx="441.9" cy="469.8" r="1.7" fill="#56514A" opacity="0.85"/>
<circle cx="454.0" cy="458.0" r="1.7" fill="#56514A" opacity="0.85"/>
<circle cx="467.4" cy="419.9" r="1.7" fill="#56514A" opacity="0.85"/>
<circle cx="445.5" cy="410.6" r="1.7" fill="#56514A" opacity="0.85"/>
<circle cx="410.0" cy="430.1" r="1.7" fill="#56514A" opacity="0.85"/>
<circle cx="460.2" cy="426.3" r="1.7" fill="#56514A" opacity="0.85"/>
<circle cx="470.4" cy="436.8" r="1.7" fill="#56514A" opacity="0.85"/>
<circle cx="414.5" cy="529.5" r="1.7" fill="#56514A" opacity="0.85"/>
<circle cx="449.9" cy="388.0" r="1.7" fill="#56514A" opacity="0.85"/>
<circle cx="433.2" cy="466.4" r="1.7" fill="#56514A" opacity="0.85"/>
<circle cx="412.3" cy="533.1" r="1.7" fill="#56514A" opacity="0.85"/>
<circle cx="443.1" cy="498.3" r="1.7" fill="#56514A" opacity="0.85"/>
<circle cx="425.9" cy="465.5" r="1.7" fill="#56514A" opacity="0.85"/>
<circle cx="413.5" cy="392.2" r="1.7" fill="#56514A" opacity="0.85"/>
<circle cx="466.6" cy="521.8" r="1.7" fill="#56514A" opacity="0.85"/>
<circle cx="442.8" cy="421.0" r="1.7" fill="#56514A" opacity="0.85"/>
<circle cx="439.4" cy="411.2" r="1.7" fill="#56514A" opacity="0.85"/>
<circle cx="496.3" cy="419.3" r="1.7" fill="#1A1714" opacity="0.85"/>
<circle cx="496.0" cy="435.8" r="1.7" fill="#1A1714" opacity="0.85"/>
<circle cx="510.8" cy="405.6" r="1.7" fill="#1A1714" opacity="0.85"/>
<circle cx="486.1" cy="395.6" r="1.7" fill="#1A1714" opacity="0.85"/>
<circle cx="499.6" cy="528.8" r="1.7" fill="#1A1714" opacity="0.85"/>
<circle cx="521.8" cy="505.4" r="1.7" fill="#1A1714" opacity="0.85"/>
<circle cx="519.7" cy="484.8" r="1.7" fill="#1A1714" opacity="0.85"/>
<circle cx="523.0" cy="429.1" r="1.7" fill="#1A1714" opacity="0.85"/>
<circle cx="521.1" cy="515.4" r="1.7" fill="#1A1714" opacity="0.85"/>
<circle cx="512.2" cy="461.1" r="1.7" fill="#1A1714" opacity="0.85"/>
<circle cx="543.6" cy="520.7" r="1.7" fill="#1A1714" opacity="0.85"/>
<circle cx="495.2" cy="460.5" r="1.7" fill="#1A1714" opacity="0.85"/>
<circle cx="526.7" cy="492.0" r="1.7" fill="#1A1714" opacity="0.85"/>
<circle cx="511.1" cy="417.7" r="1.7" fill="#1A1714" opacity="0.85"/>
<circle cx="545.0" cy="451.3" r="1.7" fill="#1A1714" opacity="0.85"/>
<circle cx="501.2" cy="522.8" r="1.7" fill="#1A1714" opacity="0.85"/>
<circle cx="511.6" cy="491.3" r="1.7" fill="#1A1714" opacity="0.85"/>
<circle cx="486.1" cy="457.9" r="1.7" fill="#1A1714" opacity="0.85"/>
<circle cx="545.1" cy="382.7" r="1.7" fill="#1A1714" opacity="0.85"/>
<circle cx="506.0" cy="394.6" r="1.7" fill="#1A1714" opacity="0.85"/>
<circle cx="540.9" cy="524.5" r="1.7" fill="#1A1714" opacity="0.85"/>
<circle cx="487.0" cy="420.7" r="1.7" fill="#1A1714" opacity="0.85"/>
<circle cx="498.0" cy="480.5" r="1.7" fill="#1A1714" opacity="0.85"/>
<circle cx="519.9" cy="438.6" r="1.7" fill="#1A1714" opacity="0.85"/>
<circle cx="499.1" cy="518.6" r="1.7" fill="#1A1714" opacity="0.85"/>
<circle cx="504.6" cy="459.2" r="1.7" fill="#1A1714" opacity="0.85"/>
<circle cx="537.4" cy="475.2" r="1.7" fill="#1A1714" opacity="0.85"/>
<circle cx="491.4" cy="389.5" r="1.7" fill="#1A1714" opacity="0.85"/>
<circle cx="525.0" cy="473.5" r="1.7" fill="#1A1714" opacity="0.85"/>
<circle cx="527.9" cy="471.8" r="1.7" fill="#1A1714" opacity="0.85"/>
<circle cx="505.3" cy="517.4" r="1.7" fill="#1A1714" opacity="0.85"/>
<circle cx="502.5" cy="485.9" r="1.7" fill="#1A1714" opacity="0.85"/>
<circle cx="502.9" cy="474.6" r="1.7" fill="#1A1714" opacity="0.85"/>
<circle cx="541.5" cy="505.8" r="1.7" fill="#1A1714" opacity="0.85"/>
<circle cx="482.0" cy="421.9" r="1.7" fill="#1A1714" opacity="0.85"/>
<circle cx="497.5" cy="526.0" r="1.7" fill="#1A1714" opacity="0.85"/>
<circle cx="506.2" cy="401.8" r="1.7" fill="#1A1714" opacity="0.85"/>
<circle cx="486.1" cy="393.3" r="1.7" fill="#1A1714" opacity="0.85"/>
<circle cx="571.1" cy="528.6" r="1.7" fill="#56514A" opacity="0.85"/>
<circle cx="559.9" cy="407.3" r="1.7" fill="#56514A" opacity="0.85"/>
<circle cx="571.7" cy="391.7" r="1.7" fill="#56514A" opacity="0.85"/>
<circle cx="569.4" cy="495.0" r="1.7" fill="#56514A" opacity="0.85"/>
<circle cx="586.2" cy="506.7" r="1.7" fill="#56514A" opacity="0.85"/>
<circle cx="577.4" cy="388.5" r="1.7" fill="#56514A" opacity="0.85"/>
<circle cx="610.2" cy="410.8" r="1.7" fill="#56514A" opacity="0.85"/>
<circle cx="593.9" cy="395.1" r="1.7" fill="#56514A" opacity="0.85"/>
<circle cx="613.8" cy="451.3" r="1.7" fill="#56514A" opacity="0.85"/>
<circle cx="599.6" cy="528.4" r="1.7" fill="#56514A" opacity="0.85"/>
<circle cx="600.4" cy="466.5" r="1.7" fill="#56514A" opacity="0.85"/>
<circle cx="601.7" cy="436.6" r="1.7" fill="#56514A" opacity="0.85"/>
<circle cx="571.8" cy="528.4" r="1.7" fill="#56514A" opacity="0.85"/>
<circle cx="612.9" cy="516.4" r="1.7" fill="#56514A" opacity="0.85"/>
<circle cx="583.7" cy="483.0" r="1.7" fill="#56514A" opacity="0.85"/>
<circle cx="572.5" cy="422.0" r="1.7" fill="#56514A" opacity="0.85"/>
<circle cx="616.1" cy="495.9" r="1.7" fill="#56514A" opacity="0.85"/>
<circle cx="595.5" cy="489.6" r="1.7" fill="#56514A" opacity="0.85"/>
<circle cx="589.2" cy="475.2" r="1.7" fill="#56514A" opacity="0.85"/>
<circle cx="564.1" cy="511.1" r="1.7" fill="#56514A" opacity="0.85"/>
<circle cx="566.7" cy="396.3" r="1.7" fill="#56514A" opacity="0.85"/>
<circle cx="585.3" cy="502.1" r="1.7" fill="#56514A" opacity="0.85"/>
<circle cx="611.6" cy="382.3" r="1.7" fill="#56514A" opacity="0.85"/>
<circle cx="582.3" cy="514.5" r="1.7" fill="#56514A" opacity="0.85"/>
<circle cx="565.8" cy="522.0" r="1.7" fill="#56514A" opacity="0.85"/>
<circle cx="575.4" cy="521.9" r="1.7" fill="#56514A" opacity="0.85"/>
<circle cx="568.8" cy="496.2" r="1.7" fill="#56514A" opacity="0.85"/>
<circle cx="590.0" cy="399.2" r="1.7" fill="#56514A" opacity="0.85"/>
<circle cx="601.5" cy="472.3" r="1.7" fill="#56514A" opacity="0.85"/>
<circle cx="580.0" cy="455.2" r="1.7" fill="#56514A" opacity="0.85"/>
<circle cx="577.6" cy="483.8" r="1.7" fill="#56514A" opacity="0.85"/>
<circle cx="557.4" cy="493.2" r="1.7" fill="#56514A" opacity="0.85"/>
<circle cx="615.5" cy="516.6" r="1.7" fill="#56514A" opacity="0.85"/>
<circle cx="585.7" cy="438.9" r="1.7" fill="#56514A" opacity="0.85"/>
<circle cx="608.8" cy="502.7" r="1.7" fill="#56514A" opacity="0.85"/>
<circle cx="570.8" cy="497.7" r="1.7" fill="#56514A" opacity="0.85"/>
<circle cx="579.1" cy="467.2" r="1.7" fill="#56514A" opacity="0.85"/>
<circle cx="614.6" cy="405.1" r="1.7" fill="#56514A" opacity="0.85"/>
<circle cx="609.4" cy="532.6" r="1.7" fill="#56514A" opacity="0.85"/>
<circle cx="555.5" cy="426.6" r="1.7" fill="#56514A" opacity="0.85"/>
<circle cx="610.9" cy="463.0" r="1.7" fill="#56514A" opacity="0.85"/>
<circle cx="591.1" cy="536.0" r="1.7" fill="#56514A" opacity="0.85"/>
<circle cx="578.5" cy="393.0" r="1.7" fill="#56514A" opacity="0.85"/>
<circle cx="606.4" cy="404.1" r="1.7" fill="#56514A" opacity="0.85"/>
<circle cx="615.8" cy="497.7" r="1.7" fill="#56514A" opacity="0.85"/>
<circle cx="560.4" cy="512.2" r="1.7" fill="#56514A" opacity="0.85"/>
<circle cx="688.0" cy="519.2" r="1.7" fill="#1A1714" opacity="0.85"/>
<circle cx="678.6" cy="427.9" r="1.7" fill="#1A1714" opacity="0.85"/>
<circle cx="679.9" cy="398.0" r="1.7" fill="#1A1714" opacity="0.85"/>
<circle cx="631.1" cy="416.2" r="1.7" fill="#1A1714" opacity="0.85"/>
<circle cx="625.7" cy="516.6" r="1.7" fill="#1A1714" opacity="0.85"/>
<circle cx="662.2" cy="530.2" r="1.7" fill="#1A1714" opacity="0.85"/>
<circle cx="671.5" cy="387.6" r="1.7" fill="#1A1714" opacity="0.85"/>
<circle cx="665.8" cy="454.5" r="1.7" fill="#1A1714" opacity="0.85"/>
<circle cx="653.7" cy="418.2" r="1.7" fill="#1A1714" opacity="0.85"/>
<circle cx="632.0" cy="489.7" r="1.7" fill="#1A1714" opacity="0.85"/>
<circle cx="686.2" cy="506.4" r="1.7" fill="#1A1714" opacity="0.85"/>
<circle cx="642.3" cy="414.1" r="1.7" fill="#1A1714" opacity="0.85"/>
<circle cx="625.7" cy="453.1" r="1.7" fill="#1A1714" opacity="0.85"/>
<circle cx="689.6" cy="493.0" r="1.7" fill="#1A1714" opacity="0.85"/>
<circle cx="645.9" cy="406.5" r="1.7" fill="#1A1714" opacity="0.85"/>
<circle cx="641.2" cy="454.8" r="1.7" fill="#1A1714" opacity="0.85"/>
<circle cx="660.7" cy="531.5" r="1.7" fill="#1A1714" opacity="0.85"/>
<circle cx="652.0" cy="435.8" r="1.7" fill="#1A1714" opacity="0.85"/>
<circle cx="629.2" cy="506.1" r="1.7" fill="#1A1714" opacity="0.85"/>
<circle cx="682.4" cy="436.2" r="1.7" fill="#1A1714" opacity="0.85"/>
<circle cx="630.8" cy="500.9" r="1.7" fill="#1A1714" opacity="0.85"/>
<circle cx="652.8" cy="478.9" r="1.7" fill="#1A1714" opacity="0.85"/>
<circle cx="657.2" cy="428.7" r="1.7" fill="#1A1714" opacity="0.85"/>
<circle cx="671.7" cy="480.1" r="1.7" fill="#1A1714" opacity="0.85"/>
<circle cx="651.0" cy="535.0" r="1.7" fill="#1A1714" opacity="0.85"/>
<circle cx="644.4" cy="405.6" r="1.7" fill="#1A1714" opacity="0.85"/>
<circle cx="629.9" cy="459.5" r="1.7" fill="#1A1714" opacity="0.85"/>
<circle cx="638.5" cy="417.9" r="1.7" fill="#1A1714" opacity="0.85"/>
<circle cx="638.1" cy="464.3" r="1.7" fill="#1A1714" opacity="0.85"/>
<circle cx="642.6" cy="398.8" r="1.7" fill="#1A1714" opacity="0.85"/>
<circle cx="632.6" cy="439.8" r="1.7" fill="#1A1714" opacity="0.85"/>
<circle cx="664.8" cy="397.7" r="1.7" fill="#1A1714" opacity="0.85"/>
<circle cx="656.7" cy="395.6" r="1.7" fill="#1A1714" opacity="0.85"/>
<circle cx="629.2" cy="444.3" r="1.7" fill="#1A1714" opacity="0.85"/>
<circle cx="684.8" cy="527.6" r="1.7" fill="#1A1714" opacity="0.85"/>
<circle cx="627.1" cy="444.1" r="1.7" fill="#1A1714" opacity="0.85"/>
<circle cx="652.3" cy="426.5" r="1.7" fill="#1A1714" opacity="0.85"/>
<circle cx="637.4" cy="466.6" r="1.7" fill="#1A1714" opacity="0.85"/>
<circle cx="671.3" cy="487.5" r="1.7" fill="#1A1714" opacity="0.85"/>
<circle cx="632.9" cy="523.8" r="1.7" fill="#1A1714" opacity="0.85"/>
<circle cx="636.2" cy="506.6" r="1.7" fill="#1A1714" opacity="0.85"/>
<circle cx="667.5" cy="455.1" r="1.7" fill="#1A1714" opacity="0.85"/>
<circle cx="699.8" cy="433.5" r="1.7" fill="#56514A" opacity="0.85"/>
<circle cx="722.1" cy="478.3" r="1.7" fill="#56514A" opacity="0.85"/>
<circle cx="719.1" cy="509.9" r="1.7" fill="#56514A" opacity="0.85"/>
<circle cx="698.0" cy="492.8" r="1.7" fill="#56514A" opacity="0.85"/>
<circle cx="720.4" cy="388.6" r="1.7" fill="#56514A" opacity="0.85"/>
<circle cx="705.7" cy="387.3" r="1.7" fill="#56514A" opacity="0.85"/>
<circle cx="711.1" cy="481.0" r="1.7" fill="#56514A" opacity="0.85"/>
<circle cx="750.5" cy="409.2" r="1.7" fill="#56514A" opacity="0.85"/>
<circle cx="725.6" cy="528.4" r="1.7" fill="#56514A" opacity="0.85"/>
<circle cx="728.2" cy="478.5" r="1.7" fill="#56514A" opacity="0.85"/>
<circle cx="756.8" cy="506.2" r="1.7" fill="#56514A" opacity="0.85"/>
<circle cx="721.2" cy="397.6" r="1.7" fill="#56514A" opacity="0.85"/>
<circle cx="699.7" cy="472.6" r="1.7" fill="#56514A" opacity="0.85"/>
<circle cx="749.9" cy="417.7" r="1.7" fill="#56514A" opacity="0.85"/>
<circle cx="700.4" cy="530.6" r="1.7" fill="#56514A" opacity="0.85"/>
<circle cx="701.8" cy="394.1" r="1.7" fill="#56514A" opacity="0.85"/>
<circle cx="714.3" cy="420.7" r="1.7" fill="#56514A" opacity="0.85"/>
<circle cx="755.5" cy="483.7" r="1.7" fill="#56514A" opacity="0.85"/>
<circle cx="715.3" cy="388.3" r="1.7" fill="#56514A" opacity="0.85"/>
<circle cx="737.4" cy="495.6" r="1.7" fill="#56514A" opacity="0.85"/>
<circle cx="743.8" cy="487.2" r="1.7" fill="#56514A" opacity="0.85"/>
<circle cx="715.5" cy="535.4" r="1.7" fill="#56514A" opacity="0.85"/>
<circle cx="746.3" cy="394.6" r="1.7" fill="#56514A" opacity="0.85"/>
<circle cx="738.5" cy="390.5" r="1.7" fill="#56514A" opacity="0.85"/>
<circle cx="699.4" cy="499.9" r="1.7" fill="#56514A" opacity="0.85"/>
<circle cx="728.3" cy="388.4" r="1.7" fill="#56514A" opacity="0.85"/>
<circle cx="759.0" cy="476.4" r="1.7" fill="#56514A" opacity="0.85"/>
<circle cx="713.9" cy="469.7" r="1.7" fill="#56514A" opacity="0.85"/>
<circle cx="729.5" cy="392.8" r="1.7" fill="#56514A" opacity="0.85"/>
<circle cx="709.5" cy="412.2" r="1.7" fill="#56514A" opacity="0.85"/>
<circle cx="745.2" cy="409.1" r="1.7" fill="#56514A" opacity="0.85"/>
<circle cx="747.4" cy="442.3" r="1.7" fill="#56514A" opacity="0.85"/>
<circle cx="718.8" cy="486.7" r="1.7" fill="#56514A" opacity="0.85"/>
<circle cx="721.0" cy="415.3" r="1.7" fill="#56514A" opacity="0.85"/>
<circle cx="702.9" cy="505.6" r="1.7" fill="#56514A" opacity="0.85"/>
<circle cx="746.1" cy="497.9" r="1.7" fill="#56514A" opacity="0.85"/>
<circle cx="702.0" cy="530.8" r="1.7" fill="#56514A" opacity="0.85"/>
<circle cx="733.3" cy="485.8" r="1.7" fill="#56514A" opacity="0.85"/>
<circle cx="760.7" cy="399.7" r="1.7" fill="#56514A" opacity="0.85"/>
<circle cx="761.2" cy="495.1" r="1.7" fill="#56514A" opacity="0.85"/>
<circle cx="703.2" cy="521.1" r="1.7" fill="#56514A" opacity="0.85"/>
<circle cx="224.4" cy="160.0" r="2.7" fill="#2C3A30" opacity="0.85"/>
<circle cx="228.6" cy="289.2" r="2.0" fill="#2C3A30" opacity="0.85"/>
<circle cx="219.1" cy="293.2" r="2.0" fill="#2C3A30" opacity="0.85"/>
<circle cx="226.8" cy="259.3" r="2.0" fill="#2C3A30" opacity="0.85"/>
<circle cx="229.4" cy="236.6" r="2.0" fill="#2C3A30" opacity="0.85"/>
<circle cx="227.7" cy="332.1" r="2.0" fill="#2C3A30" opacity="0.85"/>
<circle cx="243.7" cy="237.2" r="2.7" fill="#2C3A30" opacity="0.85"/>
<circle cx="239.5" cy="327.3" r="2.0" fill="#2C3A30" opacity="0.85"/>
<circle cx="241.1" cy="309.4" r="2.0" fill="#2C3A30" opacity="0.85"/>
<circle cx="237.6" cy="360.7" r="2.0" fill="#2C3A30" opacity="0.85"/>
<circle cx="238.6" cy="370.5" r="2.0" fill="#2C3A30" opacity="0.85"/>
<circle cx="251.3" cy="326.1" r="2.0" fill="#2C3A30" opacity="0.85"/>
<circle cx="431.3" cy="92.6" r="2.7" fill="#2C3A30" opacity="0.85"/>
<circle cx="429.3" cy="160.2" r="2.0" fill="#2C3A30" opacity="0.85"/>
<circle cx="431.5" cy="278.4" r="2.0" fill="#2C3A30" opacity="0.85"/>
<circle cx="437.5" cy="212.9" r="2.0" fill="#2C3A30" opacity="0.85"/>
<circle cx="441.2" cy="298.4" r="2.0" fill="#2C3A30" opacity="0.85"/>
<circle cx="430.8" cy="187.2" r="2.0" fill="#2C3A30" opacity="0.85"/>
<circle cx="460.2" cy="198.6" r="2.7" fill="#2C3A30" opacity="0.85"/>
<circle cx="468.5" cy="362.5" r="2.0" fill="#2C3A30" opacity="0.85"/>
<circle cx="456.1" cy="353.2" r="2.0" fill="#2C3A30" opacity="0.85"/>
<circle cx="454.0" cy="252.4" r="2.0" fill="#2C3A30" opacity="0.85"/>
<circle cx="461.9" cy="257.5" r="2.0" fill="#2C3A30" opacity="0.85"/>
<circle cx="457.7" cy="265.0" r="2.0" fill="#2C3A30" opacity="0.85"/>
<circle cx="654.8" cy="217.9" r="2.7" fill="#2C3A30" opacity="0.85"/>
<circle cx="650.0" cy="290.3" r="2.0" fill="#2C3A30" opacity="0.85"/>
<circle cx="663.8" cy="365.2" r="2.0" fill="#2C3A30" opacity="0.85"/>
<circle cx="656.8" cy="307.9" r="2.0" fill="#2C3A30" opacity="0.85"/>
<circle cx="649.2" cy="335.9" r="2.0" fill="#2C3A30" opacity="0.85"/>
<circle cx="647.7" cy="354.2" r="2.0" fill="#2C3A30" opacity="0.85"/>
</svg>