<svg viewBox="0 0 800 600" preserveAspectRatio="xMidYMid meet" xmlns="http://www.w3.org/2000/svg" role="img" aria-label="Stacked multi-omics data tracks">
<rect x="44.0" y="54.0" width="18.9" height="88.8" fill="#2C3A30" opacity="0.79"/>
<rect x="64.9" y="54.0" width="18.9" height="88.8" fill="#2C3A30" opacity="0.74"/>
<rect x="106.8" y="54.0" width="18.9" height="88.8" fill="#2C3A30" opacity="0.72"/>
<rect x="127.8" y="54.0" width="18.9" height="88.8" fill="#2C3A30" opacity="0.77"/>
<rect x="148.7" y="54.0" width="18.9" height="88.8" fill="#2C3A30" opacity="0.68"/>
<rect x="190.6" y="54.0" width="18.9" height="88.8" fill="#2C3A30" opacity="0.72"/>
<rect x="211.5" y="54.0" width="18.9" height="88.8" fill="#2C3A30" opacity="0.58"/>
<rect x="274.4" y="54.0" width="18.9" height="88.8" fill="#2C3A30" opacity="0.81"/>
<rect x="295.3" y="54.0" width="18.9" height="88.8" fill="#2C3A30" opacity="0.59"/>
<rect x="400.0" y="54.0" width="18.9" height="88.8" fill="#2C3A30" opacity="0.68"/>
<rect x="420.9" y="54.0" width="18.9" height="88.8" fill="#2C3A30" opacity="0.37"/>
<rect x="462.8" y="54.0" width="18.9" height="88.8" fill="#2C3A30" opacity="0.77"/>
<rect x="483.8" y="54.0" width="18.9" height="88.8" fill="#2C3A30" opacity="0.69"/>
<rect x="525.6" y="54.0" width="18.9" height="88.8" fill="#2C3A30" opacity="0.76"/>
<rect x="546.6" y="54.0" width="18.9" height="88.8" fill="#2C3A30" opacity="0.56"/>
<rect x="567.5" y="54.0" width="18.9" height="88.8" fill="#2C3A30" opacity="0.68"/>
<rect x="588.5" y="54.0" width="18.9" height="88.8" fill="#2C3A30" opacity="0.6"/>
<rect x="609.4" y="54.0" width="18.9" height="88.8" fill="#2C3A30" opacity="0.76"/>
<rect x="630.4" y="54.0" width="18.9" height="88.8" fill="#2C3A30" opacity="0.69"/>
<rect x="651.3" y="54.0" width="18.9" height="88.8" fill="#2C3A30" opacity="0.72"/>
<rect x="693.2" y="54.0" width="18.9" height="88.8" fill="#2C3A30" opacity="0.62"/>
<rect x="714.1" y="54.0" width="18.9" height="88.8" fill="#2C3A30" opacity="0.5"/>
<rect x="735.1" y="54.0" width="18.9" height="88.8" fill="#2C3A30" opacity="0.65"/>
<rect x="44.0" y="154.8" width="18.9" height="88.8" fill="#1A1714" opacity="0.44"/>
<rect x="64.9" y="154.8" width="18.9" height="88.8" fill="#1A1714" opacity="0.76"/>
<rect x="85.9" y="154.8" width="18.9" height="88.8" fill="#1A1714" opacity="0.52"/>
<rect x="169.6" y="154.8" width="18.9" height="88.8" fill="#1A1714" opacity="0.48"/>
<rect x="211.5" y="154.8" width="18.9" height="88.8" fill="#1A1714" opacity="0.46"/>
<rect x="253.4" y="154.8" width="18.9" height="88.8" fill="#1A1714" opacity="0.47"/>
<rect x="274.4" y="154.8" width="18.9" height="88.8" fill="#1A1714" opacity="0.48"/>
<rect x="295.3" y="154.8" width="18.9" height="88.8" fill="#1A1714" opacity="0.51"/>
<rect x="316.2" y="154.8" width="18.9" height="88.8" fill="#1A1714" opacity="0.74"/>
<rect x="358.1" y="154.8" width="18.9" height="88.8" fill="#1A1714" opacity="0.73"/>
<rect x="379.1" y="154.8" width="18.9" height="88.8" fill="#1A1714" opacity="0.46"/>
<rect x="400.0" y="154.8" width="18.9" height="88.8" fill="#1A1714" opacity="0.53"/>
<rect x="420.9" y="154.8" width="18.9" height="88.8" fill="#1A1714" opacity="0.6"/>
<rect x="441.9" y="154.8" width="18.9" height="88.8" fill="#1A1714" opacity="0.73"/>
<rect x="462.8" y="154.8" width="18.9" height="88.8" fill="#1A1714" opacity="0.39"/>
<rect x="483.8" y="154.8" width="18.9" height="88.8" fill="#1A1714" opacity="0.42"/>
<rect x="504.7" y="154.8" width="18.9" height="88.8" fill="#1A1714" opacity="0.81"/>
<rect x="546.6" y="154.8" width="18.9" height="88.8" fill="#1A1714" opacity="0.58"/>
<rect x="567.5" y="154.8" width="18.9" height="88.8" fill="#1A1714" opacity="0.58"/>
<rect x="609.4" y="154.8" width="18.9" height="88.8" fill="#1A1714" opacity="0.56"/>
<rect x="630.4" y="154.8" width="18.9" height="88.8" fill="#1A1714" opacity="0.61"/>
<rect x="651.3" y="154.8" width="18.9" height="88.8" fill="#1A1714" opacity="0.79"/>
<rect x="672.2" y="154.8" width="18.9" height="88.8" fill="#1A1714" opacity="0.36"/>
<rect x="693.2" y="154.8" width="18.9" height="88.8" fill="#1A1714" opacity="0.83"/>
<rect x="714.1" y="154.8" width="18.9" height="88.8" fill="#1A1714" opacity="0.49"/>
<rect x="735.1" y="154.8" width="18.9" height="88.8" fill="#1A1714" opacity="0.47"/>
<rect x="44.0" y="255.6" width="18.9" height="88.8" fill="#2C3A30" opacity="0.77"/>
<rect x="85.9" y="255.6" width="18.9" height="88.8" fill="#2C3A30" opacity="0.64"/>
<rect x="106.8" y="255.6" width="18.9" height="88.8" fill="#2C3A30" opacity="0.57"/>
<rect x="127.8" y="255.6" width="18.9" height="88.8" fill="#2C3A30" opacity="0.36"/>
<rect x="148.7" y="255.6" width="18.9" height="88.8" fill="#2C3A30" opacity="0.74"/>
<rect x="169.6" y="255.6" width="18.9" height="88.8" fill="#2C3A30" opacity="0.38"/>
<rect x="190.6" y="255.6" width="18.9" height="88.8" fill="#2C3A30" opacity="0.46"/>
<rect x="211.5" y="255.6" width="18.9" height="88.8" fill="#2C3A30" opacity="0.5"/>
<rect x="232.5" y="255.6" width="18.9" height="88.8" fill="#2C3A30" opacity="0.67"/>
<rect x="274.4" y="255.6" width="18.9" height="88.8" fill="#2C3A30" opacity="0.43"/>
<rect x="295.3" y="255.6" width="18.9" height="88.8" fill="#2C3A30" opacity="0.42"/>
<rect x="316.2" y="255.6" width="18.9" height="88.8" fill="#2C3A30" opacity="0.52"/>
<rect x="337.2" y="255.6" width="18.9" height="88.8" fill="#2C3A30" opacity="0.72"/>
<rect x="379.1" y="255.6" width="18.9" height="88.8" fill="#2C3A30" opacity="0.72"/>
<rect x="400.0" y="255.6" width="18.9" height="88.8" fill="#2C3A30" opacity="0.41"/>
<rect x="420.9" y="255.6" width="18.9" height="88.8" fill="#2C3A30" opacity="0.48"/>
<rect x="462.8" y="255.6" width="18.9" height="88.8" fill="#2C3A30" opacity="0.48"/>
<rect x="483.8" y="255.6" width="18.9" height="88.8" fill="#2C3A30" opacity="0.82"/>
<rect x="504.7" y="255.6" width="18.9" height="88.8" fill="#2C3A30" opacity="0.59"/>
<rect x="525.6" y="255.6" width="18.9" height="88.8" fill="#2C3A30" opacity="0.69"/>
<rect x="546.6" y="255.6" width="18.9" height="88.8" fill="#2C3A30" opacity="0.36"/>
<rect x="609.4" y="255.6" width="18.9" height="88.8" fill="#2C3A30" opacity="0.54"/>
<rect x="630.4" y="255.6" width="18.9" height="88.8" fill="#2C3A30" opacity="0.58"/>
<rect x="651.3" y="255.6" width="18.9" height="88.8" fill="#2C3A30" opacity="0.68"/>
<rect x="693.2" y="255.6" width="18.9" height="88.8" fill="#2C3A30" opacity="0.64"/>
<rect x="714.1" y="255.6" width="18.9" height="88.8" fill="#2C3A30" opacity="0.76"/>
<rect x="735.1" y="255.6" width="18.9" height="88.8" fill="#2C3A30" opacity="0.51"/>
<rect x="127.8" y="356.4" width="18.9" height="88.8" fill="#1A1714" opacity="0.78"/>
<rect x="148.7" y="356.4" width="18.9" height="88.8" fill="#1A1714" opacity="0.56"/>
<rect x="169.6" y="356.4" width="18.9" height="88.8" fill="#1A1714" opacity="0.59"/>
<rect x="190.6" y="356.4" width="18.9" height="88.8" fill="#1A1714" opacity="0.69"/>
<rect x="211.5" y="356.4" width="18.9" height="88.8" fill="#1A1714" opacity="0.78"/>
<rect x="232.5" y="356.4" width="18.9" height="88.8" fill="#1A1714" opacity="0.56"/>
<rect x="253.4" y="356.4" width="18.9" height="88.8" fill="#1A1714" opacity="0.56"/>
<rect x="274.4" y="356.4" width="18.9" height="88.8" fill="#1A1714" opacity="0.57"/>
<rect x="295.3" y="356.4" width="18.9" height="88.8" fill="#1A1714" opacity="0.62"/>
<rect x="316.2" y="356.4" width="18.9" height="88.8" fill="#1A1714" opacity="0.55"/>
<rect x="337.2" y="356.4" width="18.9" height="88.8" fill="#1A1714" opacity="0.61"/>
<rect x="379.1" y="356.4" width="18.9" height="88.8" fill="#1A1714" opacity="0.6"/>
<rect x="400.0" y="356.4" width="18.9" height="88.8" fill="#1A1714" opacity="0.45"/>
<rect x="420.9" y="356.4" width="18.9" height="88.8" fill="#1A1714" opacity="0.67"/>
<rect x="504.7" y="356.4" width="18.9" height="88.8" fill="#1A1714" opacity="0.68"/>
<rect x="525.6" y="356.4" width="18.9" height="88.8" fill="#1A1714" opacity="0.78"/>
<rect x="546.6" y="356.4" width="18.9" height="88.8" fill="#1A1714" opacity="0.59"/>
<rect x="567.5" y="356.4" width="18.9" height="88.8" fill="#1A1714" opacity="0.39"/>
<rect x="588.5" y="356.4" width="18.9" height="88.8" fill="#1A1714" opacity="0.71"/>
<rect x="609.4" y="356.4" width="18.9" height="88.8" fill="#1A1714" opacity="0.69"/>
<rect x="630.4" y="356.4" width="18.9" height="88.8" fill="#1A1714" opacity="0.52"/>
<rect x="693.2" y="356.4" width="18.9" height="88.8" fill="#1A1714" opacity="0.42"/>
<rect x="735.1" y="356.4" width="18.9" height="88.8" fill="#1A1714" opacity="0.43"/>
<rect x="44.0" y="457.2" width="18.9" height="88.8" fill="#2C3A30" opacity="0.58"/>
<rect x="64.9" y="457.2" width="18.9" height="88.8" fill="#2C3A30" opacity="0.79"/>
<rect x="106.8" y="457.2" width="18.9" height="88.8" fill="#2C3A30" opacity="0.53"/>
<rect x="169.6" y="457.2" width="18.9" height="88.8" fill="#2C3A30" opacity="0.7"/>
<rect x="190.6" y="457.2" width="18.9" height="88.8" fill="#2C3A30" opacity="0.53"/>
<rect x="211.5" y="457.2" width="18.9" height="88.8" fill="#2C3A30" opacity="0.78"/>
<rect x="232.5" y="457.2" width="18.9" height="88.8" fill="#2C3A30" opacity="0.44"/>
<rect x="274.4" y="457.2" width="18.9" height="88.8" fill="#2C3A30" opacity="0.4"/>
<rect x="295.3" y="457.2" width="18.9" height="88.8" fill="#2C3A30" opacity="0.55"/>
<rect x="316.2" y="457.2" width="18.9" height="88.8" fill="#2C3A30" opacity="0.8"/>
<rect x="337.2" y="457.2" width="18.9" height="88.8" fill="#2C3A30" opacity="0.83"/>
<rect x="358.1" y="457.2" width="18.9" height="88.8" fill="#2C3A30" opacity="0.46"/>
<rect x="379.1" y="457.2" width="18.9" height="88.8" fill="#2C3A30" opacity="0.42"/>
<rect x="420.9" y="457.2" width="18.9" height="88.8" fill="#2C3A30" opacity="0.58"/>
<rect x="525.6" y="457.2" width="18.9" height="88.8" fill="#2C3A30" opacity="0.61"/>
<rect x="567.5" y="457.2" width="18.9" height="88.8" fill="#2C3A30" opacity="0.82"/>
<rect x="609.4" y="457.2" width="18.9" height="88.8" fill="#2C3A30" opacity="0.75"/>
<rect x="672.2" y="457.2" width="18.9" height="88.8" fill="#2C3A30" opacity="0.64"/>
<rect x="714.1" y="457.2" width="18.9" height="88.8" fill="#2C3A30" opacity="0.65"/>
</svg>