<svg viewBox="0 0 800 600" preserveAspectRatio="xMidYMid meet" xmlns="http://www.w3.org/2000/svg" role="img" aria-label="Two-dimensional embedding of disease subtypes">
<circle cx="247.5" cy="332.4" r="2.3" fill="#1A1714" opacity="0.8"/>
<circle cx="309.3" cy="254.2" r="2.5" fill="#1A1714" opacity="0.8"/>
<circle cx="239.6" cy="228.4" r="2.3" fill="#1A1714" opacity="0.8"/>
<circle cx="265.6" cy="196.6" r="2.8" fill="#1A1714" opacity="0.8"/>
<circle cx="302.0" cy="271.9" r="2.8" fill="#1A1714" opacity="0.8"/>
<circle cx="223.2" cy="218.0" r="2.1" fill="#1A1714" opacity="0.8"/>
<circle cx="262.5" cy="270.7" r="2.4" fill="#1A1714" opacity="0.8"/>
<circle cx="226.0" cy="313.3" r="3.3" fill="#1A1714" opacity="0.8"/>
<circle cx="227.0" cy="305.6" r="2.6" fill="#1A1714" opacity="0.8"/>
<circle cx="267.6" cy="229.9" r="3.4" fill="#1A1714" opacity="0.8"/>
<circle cx="225.9" cy="277.8" r="2.3" fill="#1A1714" opacity="0.8"/>
<circle cx="356.7" cy="253.9" r="3.3" fill="#1A1714" opacity="0.8"/>
<circle cx="222.9" cy="264.1" r="3.2" fill="#1A1714" opacity="0.8"/>
<circle cx="187.3" cy="265.7" r="2.2" fill="#1A1714" opacity="0.8"/>
<circle cx="344.5" cy="258.8" r="3.3" fill="#1A1714" opacity="0.8"/>
<circle cx="277.0" cy="266.9" r="2.9" fill="#1A1714" opacity="0.8"/>
<circle cx="222.9" cy="278.5" r="2.4" fill="#1A1714" opacity="0.8"/>
<circle cx="248.9" cy="249.9" r="3.3" fill="#1A1714" opacity="0.8"/>
<circle cx="347.9" cy="329.8" r="3.4" fill="#1A1714" opacity="0.8"/>
<circle cx="252.4" cy="257.1" r="2.2" fill="#1A1714" opacity="0.8"/>
<circle cx="324.4" cy="222.2" r="2.1" fill="#1A1714" opacity="0.8"/>
<circle cx="261.0" cy="244.5" r="2.5" fill="#1A1714" opacity="0.8"/>
<circle cx="328.3" cy="196.2" r="2.2" fill="#1A1714" opacity="0.8"/>
<circle cx="270.0" cy="162.7" r="2.3" fill="#1A1714" opacity="0.8"/>
<circle cx="188.2" cy="292.3" r="2.3" fill="#1A1714" opacity="0.8"/>
<circle cx="271.5" cy="356.1" r="2.6" fill="#1A1714" opacity="0.8"/>
<circle cx="223.5" cy="247.0" r="2.3" fill="#1A1714" opacity="0.8"/>
<circle cx="246.2" cy="226.3" r="3.3" fill="#1A1714" opacity="0.8"/>
<circle cx="355.3" cy="277.8" r="2.1" fill="#1A1714" opacity="0.8"/>
<circle cx="273.7" cy="211.8" r="2.2" fill="#1A1714" opacity="0.8"/>
<circle cx="174.2" cy="195.3" r="2.4" fill="#1A1714" opacity="0.8"/>
<circle cx="223.3" cy="264.6" r="2.8" fill="#1A1714" opacity="0.8"/>
<circle cx="213.1" cy="268.6" r="2.6" fill="#1A1714" opacity="0.8"/>
<circle cx="313.3" cy="259.4" r="2.9" fill="#1A1714" opacity="0.8"/>
<circle cx="239.0" cy="250.7" r="3.1" fill="#1A1714" opacity="0.8"/>
<circle cx="135.7" cy="280.7" r="2.3" fill="#1A1714" opacity="0.8"/>
<circle cx="221.7" cy="254.8" r="2.6" fill="#1A1714" opacity="0.8"/>
<circle cx="269.2" cy="262.5" r="2.6" fill="#1A1714" opacity="0.8"/>
<circle cx="153.9" cy="243.9" r="2.1" fill="#1A1714" opacity="0.8"/>
<circle cx="247.4" cy="224.9" r="3.1" fill="#1A1714" opacity="0.8"/>
<circle cx="172.1" cy="244.4" r="2.5" fill="#1A1714" opacity="0.8"/>
<circle cx="276.4" cy="241.6" r="2.2" fill="#1A1714" opacity="0.8"/>
<circle cx="320.8" cy="161.2" r="3.1" fill="#1A1714" opacity="0.8"/>
<circle cx="251.0" cy="252.6" r="3.4" fill="#1A1714" opacity="0.8"/>
<circle cx="100.1" cy="257.7" r="2.2" fill="#1A1714" opacity="0.8"/>
<circle cx="260.0" cy="209.3" r="3.3" fill="#1A1714" opacity="0.8"/>
<circle cx="313.8" cy="277.9" r="2.2" fill="#1A1714" opacity="0.8"/>
<circle cx="325.4" cy="192.7" r="2.4" fill="#1A1714" opacity="0.8"/>
<circle cx="270.5" cy="203.0" r="3.3" fill="#1A1714" opacity="0.8"/>
<circle cx="266.8" cy="312.7" r="2.4" fill="#1A1714" opacity="0.8"/>
<circle cx="241.9" cy="249.7" r="2.3" fill="#1A1714" opacity="0.8"/>
<circle cx="259.2" cy="264.8" r="3.3" fill="#1A1714" opacity="0.8"/>
<circle cx="235.6" cy="219.5" r="3.1" fill="#1A1714" opacity="0.8"/>
<circle cx="269.5" cy="267.2" r="2.7" fill="#1A1714" opacity="0.8"/>
<circle cx="190.7" cy="181.6" r="2.8" fill="#1A1714" opacity="0.8"/>
<circle cx="462.6" cy="159.7" r="3.2" fill="#2C3A30" opacity="0.8"/>
<circle cx="611.9" cy="256.6" r="2.6" fill="#2C3A30" opacity="0.8"/>
<circle cx="546.1" cy="201.4" r="2.4" fill="#2C3A30" opacity="0.8"/>
<circle cx="595.1" cy="202.0" r="3.1" fill="#2C3A30" opacity="0.8"/>
<circle cx="520.2" cy="214.4" r="2.2" fill="#2C3A30" opacity="0.8"/>
<circle cx="540.7" cy="99.1" r="2.4" fill="#2C3A30" opacity="0.8"/>
<circle cx="523.7" cy="179.5" r="3.4" fill="#2C3A30" opacity="0.8"/>
<circle cx="522.0" cy="191.2" r="2.0" fill="#2C3A30" opacity="0.8"/>
<circle cx="588.5" cy="214.4" r="2.2" fill="#2C3A30" opacity="0.8"/>
<circle cx="496.1" cy="161.3" r="3.3" fill="#2C3A30" opacity="0.8"/>
<circle cx="565.1" cy="226.9" r="2.3" fill="#2C3A30" opacity="0.8"/>
<circle cx="542.5" cy="201.5" r="2.5" fill="#2C3A30" opacity="0.8"/>
<circle cx="545.5" cy="205.4" r="2.5" fill="#2C3A30" opacity="0.8"/>
<circle cx="556.1" cy="273.3" r="2.3" fill="#2C3A30" opacity="0.8"/>
<circle cx="516.4" cy="176.8" r="2.7" fill="#2C3A30" opacity="0.8"/>
<circle cx="572.4" cy="236.0" r="2.2" fill="#2C3A30" opacity="0.8"/>
<circle cx="559.3" cy="214.8" r="2.9" fill="#2C3A30" opacity="0.8"/>
<circle cx="553.4" cy="196.2" r="2.4" fill="#2C3A30" opacity="0.8"/>
<circle cx="604.4" cy="209.3" r="2.9" fill="#2C3A30" opacity="0.8"/>
<circle cx="497.9" cy="185.6" r="2.6" fill="#2C3A30" opacity="0.8"/>
<circle cx="609.4" cy="178.1" r="3.0" fill="#2C3A30" opacity="0.8"/>
<circle cx="545.1" cy="219.8" r="2.7" fill="#2C3A30" opacity="0.8"/>
<circle cx="536.5" cy="210.7" r="2.3" fill="#2C3A30" opacity="0.8"/>
<circle cx="546.6" cy="205.6" r="2.8" fill="#2C3A30" opacity="0.8"/>
<circle cx="553.7" cy="201.6" r="2.2" fill="#2C3A30" opacity="0.8"/>
<circle cx="562.3" cy="257.8" r="2.9" fill="#2C3A30" opacity="0.8"/>
<circle cx="562.4" cy="163.7" r="2.2" fill="#2C3A30" opacity="0.8"/>
<circle cx="542.9" cy="210.5" r="3.2" fill="#2C3A30" opacity="0.8"/>
<circle cx="548.7" cy="187.4" r="3.0" fill="#2C3A30" opacity="0.8"/>
<circle cx="600.4" cy="207.2" r="2.7" fill="#2C3A30" opacity="0.8"/>
<circle cx="540.7" cy="122.9" r="2.6" fill="#2C3A30" opacity="0.8"/>
<circle cx="550.2" cy="239.0" r="2.1" fill="#2C3A30" opacity="0.8"/>
<circle cx="531.3" cy="228.0" r="3.0" fill="#2C3A30" opacity="0.8"/>
<circle cx="527.0" cy="154.8" r="2.4" fill="#2C3A30" opacity="0.8"/>
<circle cx="471.3" cy="179.1" r="2.6" fill="#2C3A30" opacity="0.8"/>
<circle cx="556.2" cy="159.7" r="2.9" fill="#2C3A30" opacity="0.8"/>
<circle cx="551.7" cy="203.5" r="2.3" fill="#2C3A30" opacity="0.8"/>
<circle cx="578.8" cy="173.3" r="2.3" fill="#2C3A30" opacity="0.8"/>
<circle cx="544.8" cy="200.6" r="3.3" fill="#2C3A30" opacity="0.8"/>
<circle cx="543.6" cy="147.6" r="2.5" fill="#2C3A30" opacity="0.8"/>
<circle cx="552.4" cy="314.2" r="3.3" fill="#2C3A30" opacity="0.8"/>
<circle cx="523.7" cy="182.2" r="3.4" fill="#2C3A30" opacity="0.8"/>
<circle cx="463.4" cy="220.8" r="3.2" fill="#2C3A30" opacity="0.8"/>
<circle cx="532.0" cy="166.9" r="3.0" fill="#2C3A30" opacity="0.8"/>
<circle cx="499.6" cy="183.5" r="2.4" fill="#2C3A30" opacity="0.8"/>
<circle cx="549.1" cy="221.8" r="3.3" fill="#2C3A30" opacity="0.8"/>
<circle cx="555.3" cy="218.3" r="2.0" fill="#2C3A30" opacity="0.8"/>
<circle cx="584.0" cy="235.9" r="2.2" fill="#2C3A30" opacity="0.8"/>
<circle cx="463.6" cy="421.1" r="2.1" fill="#56514A" opacity="0.8"/>
<circle cx="398.8" cy="332.1" r="3.0" fill="#56514A" opacity="0.8"/>
<circle cx="520.7" cy="454.8" r="2.8" fill="#56514A" opacity="0.8"/>
<circle cx="387.1" cy="464.6" r="3.2" fill="#56514A" opacity="0.8"/>
<circle cx="562.8" cy="473.4" r="3.2" fill="#56514A" opacity="0.8"/>
<circle cx="463.0" cy="395.3" r="2.3" fill="#56514A" opacity="0.8"/>
<circle cx="440.7" cy="424.1" r="2.0" fill="#56514A" opacity="0.8"/>
<circle cx="456.7" cy="377.1" r="3.2" fill="#56514A" opacity="0.8"/>
<circle cx="353.6" cy="332.0" r="2.4" fill="#56514A" opacity="0.8"/>
<circle cx="525.7" cy="484.4" r="2.3" fill="#56514A" opacity="0.8"/>
<circle cx="394.9" cy="490.7" r="2.6" fill="#56514A" opacity="0.8"/>
<circle cx="432.9" cy="415.4" r="3.0" fill="#56514A" opacity="0.8"/>
<circle cx="382.7" cy="466.6" r="2.4" fill="#56514A" opacity="0.8"/>
<circle cx="593.6" cy="377.3" r="2.9" fill="#56514A" opacity="0.8"/>
<circle cx="433.9" cy="415.8" r="2.6" fill="#56514A" opacity="0.8"/>
<circle cx="419.5" cy="419.4" r="3.0" fill="#56514A" opacity="0.8"/>
<circle cx="353.7" cy="396.5" r="2.3" fill="#56514A" opacity="0.8"/>
<circle cx="516.8" cy="313.0" r="2.2" fill="#56514A" opacity="0.8"/>
<circle cx="516.1" cy="415.7" r="2.3" fill="#56514A" opacity="0.8"/>
<circle cx="430.6" cy="407.1" r="2.7" fill="#56514A" opacity="0.8"/>
<circle cx="428.9" cy="415.1" r="3.1" fill="#56514A" opacity="0.8"/>
<circle cx="461.7" cy="487.8" r="3.2" fill="#56514A" opacity="0.8"/>
<circle cx="429.8" cy="417.7" r="3.3" fill="#56514A" opacity="0.8"/>
<circle cx="423.8" cy="443.7" r="2.7" fill="#56514A" opacity="0.8"/>
<circle cx="530.3" cy="497.9" r="2.9" fill="#56514A" opacity="0.8"/>
<circle cx="457.4" cy="430.3" r="3.1" fill="#56514A" opacity="0.8"/>
<circle cx="340.4" cy="322.0" r="2.5" fill="#56514A" opacity="0.8"/>
<circle cx="314.0" cy="497.9" r="2.1" fill="#56514A" opacity="0.8"/>
<circle cx="515.0" cy="343.3" r="2.0" fill="#56514A" opacity="0.8"/>
<circle cx="434.2" cy="429.7" r="2.7" fill="#56514A" opacity="0.8"/>
<circle cx="296.1" cy="541.8" r="3.2" fill="#56514A" opacity="0.8"/>
<circle cx="440.6" cy="517.2" r="3.1" fill="#56514A" opacity="0.8"/>
<circle cx="430.5" cy="389.3" r="2.9" fill="#56514A" opacity="0.8"/>
<circle cx="416.6" cy="433.9" r="3.2" fill="#56514A" opacity="0.8"/>
<circle cx="406.8" cy="377.3" r="3.0" fill="#56514A" opacity="0.8"/>
<circle cx="496.5" cy="535.2" r="2.8" fill="#56514A" opacity="0.8"/>
<circle cx="469.0" cy="454.6" r="2.6" fill="#56514A" opacity="0.8"/>
<circle cx="433.2" cy="412.2" r="2.4" fill="#56514A" opacity="0.8"/>
<circle cx="413.8" cy="361.5" r="3.2" fill="#56514A" opacity="0.8"/>
<circle cx="450.4" cy="444.8" r="2.5" fill="#56514A" opacity="0.8"/>
<circle cx="376.6" cy="407.5" r="2.2" fill="#56514A" opacity="0.8"/>
<circle cx="389.0" cy="491.8" r="3.0" fill="#56514A" opacity="0.8"/>
<circle cx="604.1" cy="544.5" r="3.3" fill="#56514A" opacity="0.8"/>
<circle cx="578.1" cy="525.0" r="3.1" fill="#56514A" opacity="0.8"/>
<circle cx="412.8" cy="251.7" r="2.6" fill="#56514A" opacity="0.8"/>
<circle cx="438.8" cy="440.0" r="2.3" fill="#56514A" opacity="0.8"/>
<circle cx="406.2" cy="435.1" r="2.0" fill="#56514A" opacity="0.8"/>
<circle cx="402.9" cy="435.0" r="2.7" fill="#56514A" opacity="0.8"/>
<circle cx="343.9" cy="320.5" r="2.6" fill="#56514A" opacity="0.8"/>
<circle cx="473.8" cy="469.2" r="3.0" fill="#56514A" opacity="0.8"/>
<circle cx="474.5" cy="386.0" r="2.6" fill="#56514A" opacity="0.8"/>
<circle cx="429.5" cy="414.8" r="2.3" fill="#56514A" opacity="0.8"/>
<circle cx="414.4" cy="326.4" r="3.2" fill="#56514A" opacity="0.8"/>
<circle cx="437.8" cy="363.7" r="3.0" fill="#56514A" opacity="0.8"/>
<circle cx="329.2" cy="290.7" r="2.6" fill="#56514A" opacity="0.8"/>
<circle cx="419.6" cy="439.9" r="2.6" fill="#56514A" opacity="0.8"/>
<circle cx="435.7" cy="387.4" r="3.0" fill="#56514A" opacity="0.8"/>
<circle cx="430.0" cy="415.0" r="2.6" fill="#56514A" opacity="0.8"/>
<circle cx="364.8" cy="352.6" r="2.6" fill="#56514A" opacity="0.8"/>
<circle cx="407.6" cy="370.8" r="2.9" fill="#56514A" opacity="0.8"/>
<circle cx="617.0" cy="408.8" r="2.5" fill="#6B2C38" opacity="0.8"/>
<circle cx="603.5" cy="420.7" r="2.8" fill="#6B2C38" opacity="0.8"/>
<circle cx="616.0" cy="421.6" r="3.1" fill="#6B2C38" opacity="0.8"/>
<circle cx="632.9" cy="413.0" r="2.8" fill="#6B2C38" opacity="0.8"/>
<circle cx="612.7" cy="419.4" r="3.0" fill="#6B2C38" opacity="0.8"/>
<circle cx="564.6" cy="416.1" r="2.7" fill="#6B2C38" opacity="0.8"/>
<circle cx="563.8" cy="452.4" r="3.3" fill="#6B2C38" opacity="0.8"/>
<circle cx="619.2" cy="436.3" r="3.1" fill="#6B2C38" opacity="0.8"/>
<circle cx="642.6" cy="446.7" r="3.4" fill="#6B2C38" opacity="0.8"/>
<circle cx="595.6" cy="444.9" r="2.6" fill="#6B2C38" opacity="0.8"/>
<circle cx="626.7" cy="421.0" r="2.6" fill="#6B2C38" opacity="0.8"/>
<circle cx="604.0" cy="426.0" r="2.4" fill="#6B2C38" opacity="0.8"/>
<circle cx="620.9" cy="456.6" r="3.0" fill="#6B2C38" opacity="0.8"/>
<circle cx="642.0" cy="409.3" r="3.1" fill="#6B2C38" opacity="0.8"/>
<circle cx="611.1" cy="423.1" r="2.3" fill="#6B2C38" opacity="0.8"/>
<circle cx="623.8" cy="429.2" r="2.9" fill="#6B2C38" opacity="0.8"/>
<circle cx="541.0" cy="434.5" r="2.8" fill="#6B2C38" opacity="0.8"/>
<circle cx="620.7" cy="457.8" r="2.9" fill="#6B2C38" opacity="0.8"/>
<circle cx="618.7" cy="412.0" r="3.1" fill="#6B2C38" opacity="0.8"/>
<circle cx="600.7" cy="422.9" r="2.2" fill="#6B2C38" opacity="0.8"/>
<circle cx="640.6" cy="376.0" r="2.5" fill="#6B2C38" opacity="0.8"/>
<circle cx="617.6" cy="416.4" r="2.4" fill="#6B2C38" opacity="0.8"/>
<circle cx="578.7" cy="438.2" r="2.3" fill="#6B2C38" opacity="0.8"/>
<circle cx="621.0" cy="420.1" r="2.3" fill="#6B2C38" opacity="0.8"/>
<circle cx="604.3" cy="451.8" r="2.7" fill="#6B2C38" opacity="0.8"/>
<circle cx="578.9" cy="437.4" r="2.5" fill="#6B2C38" opacity="0.8"/>
</svg>